<?xml version="1.0" encoding="utf-8" ?><svg xmlns="http://www.w3.org/2000/svg" xmlns:xlink="http://www.w3.org/1999/xlink" width="1172" height="1311" viewBox="0 0 1172 1311"><path fill="#FEFEFE" d="M678.788 37.3142L680.825 38.0329C682.233 39.5633 682.985 41.1771 683.804 43.0639C691.451 60.69 740.705 194.182 734.593 204.771C733.658 206.39 733.094 206.401 731.405 206.879C726.099 205.679 707.689 180.075 703.68 174.591C704.791 181.829 705.298 192.598 705.867 200.113L709.197 244.242L719.77 385.464C755.989 357.33 821.285 315.846 868.861 316.486C891.911 317.218 906.647 324.414 922.587 339.844C950.372 366.741 943.764 392.484 943.147 427.022C943.087 430.347 942.978 435.317 940.391 437.726C936.241 438.998 934.756 436.59 932.073 433.522C924.039 424.331 918.279 414.09 908.81 406.127C899.897 398.633 889.099 393.729 877.592 391.949C827.647 383.822 763.517 427.216 724.749 455.072C725.891 461.986 726.653 478.264 727.237 486.041L731.948 547.858L737.417 617.346C739.882 647.844 742.773 684.633 738.525 715.112C736.806 727.446 726.002 782.355 718.211 789.743C715.954 790.49 717.053 790.506 714.801 789.653C711.574 784.76 709.984 730.655 709.349 721.396L698.32 574.471C696.107 544.781 694.428 510.454 691.09 481.301C681.229 489.675 671.235 497.759 661.643 506.456C665.809 515.857 669.301 525.543 672.091 535.44C681.17 567.949 679.649 595.892 670.007 628.115C666.225 640.752 661.7 652.92 655.139 664.418C618.941 727.854 463.669 823.848 396.95 861.243C377.601 872.088 349.665 888.68 328.922 894.234C309.419 899.456 288.711 901.674 268.678 904.052C230.858 908.549 192.875 911.55 154.817 913.048C148.18 913.289 117.635 915.905 115.871 908.855C117.631 904.169 128.247 901.054 132.835 899.696C145.796 895.859 158.352 890.944 171.108 886.648C263.682 856.222 352.549 815.503 436.043 765.256C452.882 755.882 476.284 740.752 492.403 730.138C548.954 692.902 606.968 653.859 651.593 602.502C645.847 586.196 630.835 558.521 622.664 541.366C617.153 547.371 609.214 554.262 603.159 560.133C590.663 572.246 577.824 584.212 565.426 596.417C537.289 624.281 508.839 651.826 480.08 679.048C443.11 713.799 407.088 745.354 366.51 773.007C312.151 811.343 219.785 836.261 184.523 759.819C159.632 705.859 163.436 648.903 182.319 593.786C198.594 546.948 221.932 502.872 251.525 463.087C255.423 457.925 265.915 442.4 272.754 444.902C274.301 447.104 274.502 448.262 273.327 451.165C266.438 468.186 255.551 484.35 246.487 500.275C222.421 542.559 196.475 594.166 192.387 643.381C190.562 665.351 195.537 697.887 210.951 714.415C224.487 728.928 242.047 735.23 261.571 735.963C286.305 736.892 311.971 730.641 334.046 719.682C370.018 701.822 403.621 674.771 433.732 648.458C476.38 611.188 516.305 570.787 556.957 531.397C571.867 516.95 586.395 502.111 601.744 488.099C593.265 463.196 599.277 460.908 579.257 441.273C580.431 433.011 592.458 372.507 595.764 369.864C600.895 373.137 646.139 433.084 652.36 441.07C663.489 431.046 674.837 421.269 686.396 411.744C683.785 392.62 682.462 362.182 680.944 342.287L669.984 205.222L666.362 163.934C665.771 157.464 664.691 142.856 663.107 137.307C660.261 127.331 654.651 113.511 650.708 103.767C655.732 90.4982 661.968 76.6201 667.276 63.3768C669.767 57.1635 675.667 42.2072 678.788 37.3142Z"/><path fill="#FEFEFE" d="M819.225 527.632C823.241 528.889 846.829 544.118 853.366 547.682C872.195 558.096 891.212 568.175 910.226 578.244C914.782 580.657 925.819 585.486 928.551 589.038C929.09 591.58 929.172 590.352 928.191 592.846C922.639 596.398 901.867 595.884 893.441 596.835C915.354 618.269 942.814 637.94 968.331 655.013C991.212 670.296 1009.38 679.936 1029.85 699.142C1076.18 742.631 1054.7 865.24 997.228 889.203C958.18 905.483 874.231 875.722 834.05 856.865C803.196 873.56 762.491 890.596 729.63 902.272C730.314 921.749 731.492 936.497 728.436 956.048C721.173 1002.51 704.228 1032.62 669.42 1064.06C660.903 1071.76 652.326 1079.91 642.975 1086.78C632.99 1086.25 620.585 1086.52 610.482 1086.52L555.436 1086.52L543.03 1086.33C593.503 1053.52 680.009 995.042 711.804 946.112C707.253 933.504 702.621 923.603 696.645 911.651C666.703 919.416 615.551 927.592 586.419 917.399C537.656 900.338 534.15 845.001 550.823 803.169C563.49 771.389 597.112 726.543 636.435 743.888C673.987 760.451 699.363 800.641 714.953 836.963C733.584 831.529 749.017 826.586 767.083 819.495C756.72 801.397 755.09 786.89 754.065 766.291C751.347 711.67 779.284 646.859 817.187 607.697L809.596 600.036C810.283 589.558 816.465 533.612 819.225 527.632ZM838.326 778.414L846.953 782.106C866.045 770.294 886.343 753.618 897.47 734.003C894.285 708.168 873.963 665.292 844.758 662.129C822.312 664.92 806.479 679.018 792.502 696.032C782.226 708.541 776.414 723.916 783.657 739.545C793.645 760.157 818.393 769.872 838.326 778.414ZM896.899 800.263C926.162 809.637 971.472 822.533 1002.57 820.88C1011.27 820.343 1034.12 819.007 1031.56 805.654C1028.32 788.746 1008.21 771.702 995.598 760.444C988.379 754.495 974.371 745.328 966.703 740.052C952.988 730.727 939.481 721.099 926.193 711.174C923.497 741.514 914.902 775.203 896.899 800.263ZM578.657 835.933C592.003 847.411 614.993 848.767 631.933 849.22C641.481 848.787 650.073 848.474 659.585 847.31C648.187 831.246 628.705 809.927 606.487 813.809C592.909 815.925 582.697 822.066 578.657 835.933Z"/><path fill="#FEFEFE" d="M260.753 1188.67C269.792 1188.25 281.188 1188.6 290.495 1188.61L349.847 1188.59L568.062 1188.61L826.582 1188.61C870.421 1188.61 919.332 1187.54 962.837 1188.79C972.446 1197.32 972.063 1197.88 962.797 1206.63L260.868 1206.62L259.282 1205.16C250.598 1197.06 252.517 1196.22 260.753 1188.67Z"/><path fill="#FEFEFE" d="M812.888 916.099C819.028 915.776 824.635 916.93 830.509 918.467C867.866 928.246 900.138 960.322 889.742 1001.45C884.179 1023.46 854.277 1016.89 838.911 1012.01C823.995 1043.79 799.455 1062.06 771.998 1082.96C769.714 1084.58 768.211 1085.47 765.756 1086.83C755.699 1086.29 743.954 1086.46 733.778 1086.39C759.215 1067.87 787.181 1050.85 810.151 1029.07C816.005 1023.52 822.586 1015.05 827.445 1008.66C820.93 1007.04 812.421 1005.24 806.555 1002.27C784.349 991.021 799.36 959.762 807.529 944.414C799.328 942.283 796.727 939.633 800.18 930.92C802.634 924.728 806.701 918.68 812.888 916.099ZM848.159 987.172C857.424 989.489 869.546 992.509 878.978 992.087L882.946 991.337C877.74 978.698 862.499 959.968 849.528 954.045C853.555 965.208 852.074 976.043 848.159 987.172ZM824.285 981.81L838.374 984.997C838.634 976.085 839.295 955.099 826.056 954.966C813.951 962.107 796.033 976.333 821.022 981.189C822.108 981.402 823.196 981.609 824.285 981.81Z"/><path fill="#FEFEFE" d="M301.446 1212.43L455.93 1212.45C437.477 1223.28 401.749 1243.03 382.554 1248.94C366.406 1253.91 330.731 1257.97 313.005 1260.03C292.692 1262.21 181.386 1273.4 169.202 1265.88C167.961 1263.78 168.203 1264.89 168.535 1262.4C169.902 1260.22 172.185 1259.5 174.651 1258.61C190.507 1252.88 206.579 1247.71 222.502 1242.1C248.991 1232.68 275.31 1222.79 301.446 1212.43Z"/><path fill="#FEFEFE" d="M360.525 440.18C366.88 441.797 423.527 471.533 430.245 476.608C423.006 493.024 414.974 509.246 407.564 525.598C405.328 530.533 401.979 538.438 398.718 542.524C392.545 540.825 376.767 530.292 369.438 527.072C364.58 524.937 330.646 508.26 329.976 505.152C333.326 495.659 341.39 480.081 345.732 470.511C348.876 463.58 356.707 445.93 360.525 440.18Z"/><path fill="#FEFEFE" d="M512.672 269.156C520.058 271.392 578.81 301.925 580.979 305.688C580.16 311.623 553.929 368.262 550.303 371.473C544.671 369.161 529.481 360.273 522.735 356.777C509.226 349.775 494.455 342.816 481.271 335.589C483.204 329.155 509.11 273.373 512.672 269.156Z"/><path fill="#FEFEFE" d="M936.026 449.929C937.656 450.476 936.918 450.184 938.285 451.672C939.355 455.874 936.08 469.637 934.843 474.227C908.697 485.968 772.623 527.181 762.696 541.705C761.871 542.912 761.702 543.907 762.102 545.315C764.198 552.685 781.305 561.727 787.888 565.564C787.403 570.75 786.161 585.604 782.717 588.73C780.248 588.963 781.119 588.969 778.627 587.796C766.653 580.187 755.2 571.674 749.496 558.224C742.301 541.259 748.635 524.182 764.332 514.915C781.596 504.721 800.978 498.625 819.764 491.752C843.693 482.983 867.666 474.337 891.683 465.813C905.866 460.79 922.202 455.442 936.026 449.929Z"/><path fill="#FEFEFE" d="M526.758 1109.32L546.832 1109.45C545.07 1116.97 543.264 1124.48 541.412 1131.98C538.275 1147.64 533.838 1164.84 530.103 1180.42L506.103 1180.47C503.174 1165.29 498.405 1147.37 494.71 1132.11C491.65 1147.39 486.994 1165.1 483.371 1180.47L459.739 1180.45C453.728 1159.49 447.947 1131.15 442.806 1109.34L462.853 1109.49C466.696 1122.32 470.575 1141.27 473.846 1154.85C477.653 1140.15 481.246 1124.2 484.485 1109.36L504.965 1109.45L515.787 1155.12C519.683 1140.13 523.19 1124.44 526.758 1109.32Z"/><path fill="#FEFEFE" d="M402.797 900.599C404.97 900.864 404.11 900.409 405.566 901.786C406.828 905.971 403.719 918.899 402.788 924.124C398.003 926.579 387.729 930.099 382.441 932.044L347.432 944.889L227.391 988.586C226.325 988.885 226.496 988.721 225.246 988.479C222.751 984.705 226.531 969.975 227.548 964.754C246.001 957.624 265.988 950.743 284.651 943.952L402.797 900.599Z"/><path fill="#FEFEFE" d="M571.949 953.193C572.535 953.562 574.05 954.246 574.019 954.951C573.812 959.67 572.848 976.056 568.084 978.007C553.276 984.073 538.076 989.378 523.074 994.872L440.569 1024.96C425.862 1030.3 408.003 1036.23 393.966 1042.16L392.47 1040.19C391.49 1035.69 394.666 1022.78 395.731 1017.74C402.741 1014.44 414.916 1010.43 422.438 1007.7L470.717 990.17L534.372 966.846C546.267 962.451 559.987 957.001 571.949 953.193Z"/><path fill="#FEFEFE" d="M1066.37 1109.4L1086.42 1109.35L1086.44 1180.43L1063.35 1180.45C1055.55 1166.13 1048.12 1151.17 1040.09 1137.04L1040.11 1180.42L1020.28 1180.44C1019.4 1160.04 1019.78 1130.07 1020.27 1109.42C1027.84 1109.54 1035.55 1109.48 1043.13 1109.49C1051.03 1123.04 1058.71 1139.1 1066.44 1153.08C1065.99 1139.23 1066.21 1123.3 1066.37 1109.4Z"/><path fill="#FEFEFE" d="M214.145 1109.32L234.954 1109.27L234.989 1158.07C234.99 1162.11 235.279 1176.62 234.698 1180.03L233.152 1180.42L214.2 1180.44C213.589 1171.66 213.987 1159.24 214.212 1150.36L189.536 1150.4C190.2 1158.45 189.846 1171.93 189.884 1180.39L169.004 1180.43C168.205 1159.83 168.323 1130 169.04 1109.35L189.947 1109.25C189.584 1117.91 190.264 1127.71 189.587 1136.22L214.29 1136.28C213.678 1128.59 213.929 1117.14 214.145 1109.32Z"/><path fill="#FEFEFE" d="M331.912 1109.28L356.306 1109.36L372.596 1152.97C375.572 1160.95 380.142 1172.24 382.301 1180.26C376.311 1180.65 367.678 1180.43 361.496 1180.43C360.295 1176.42 358.451 1171.52 357.059 1167.49L330.993 1167.52C329.951 1171.55 328.043 1176.39 326.584 1180.39L305.436 1180.4C314.631 1157.14 322.664 1132.59 331.912 1109.28ZM335.822 1154.16L345.807 1154.17L352.43 1154.17C350.876 1149.58 345.841 1133.82 344.048 1130.31C341.34 1138.1 338.312 1146.34 335.822 1154.16Z"/><path fill="#FEFEFE" d="M633.508 1109.26L657.972 1109.42C665.665 1128.28 672.012 1148.12 679.517 1167.1C681.195 1171.34 682.934 1176.03 684.074 1180.44L663.481 1180.43C661.738 1175.87 660.396 1172.17 658.997 1167.5L632.831 1167.5C631.565 1171.66 629.858 1176.29 628.437 1180.45C621.4 1180.47 614.363 1180.44 607.327 1180.36C615.061 1157.47 625.13 1132.25 633.508 1109.26ZM637.626 1154.18L646.808 1154.17L654.208 1154.2C653.07 1150.84 647.113 1132.14 645.652 1130.39L637.626 1154.18Z"/><path fill="#FEFEFE" d="M890.216 1109.34C906.457 1109.89 925.625 1109.45 942.093 1109.32L942.145 1123.39L910.873 1123.43L910.955 1136.34C920.761 1136.37 930.566 1136.34 940.371 1136.26C940.399 1140.95 940.346 1145.64 940.211 1150.33C935.372 1150.32 914.749 1149.99 911.186 1150.77L910.933 1152.09L910.956 1166.38C921.618 1166.43 932.28 1166.41 942.942 1166.32L943.012 1180.44L890.229 1180.51C890.031 1176.88 889.994 1173.17 890.04 1169.53C890.294 1149.54 889.566 1129.31 890.216 1109.34Z"/><path fill="#FEFEFE" d="M752.068 1109.38C772.741 1109.47 793.414 1109.46 814.087 1109.34L814.115 1120.33C802.823 1135.06 788.175 1151.81 776.228 1166.4L815.428 1166.33L815.396 1180.47L750.834 1180.49C750.571 1176.51 750.665 1173.13 750.75 1169.15C762.564 1154.34 776.342 1137.78 788.707 1123.44L752.042 1123.45C751.735 1117.95 751.696 1114.86 752.068 1109.38Z"/></svg>